<?xml version="1.0" standalone="no"?><!DOCTYPE svg PUBLIC "-//W3C//DTD SVG 1.1//EN" "http://www.w3.org/Graphics/SVG/1.1/DTD/svg11.dtd"><svg t="1707735293937" class="icon" viewBox="0 0 1024 1024" version="1.1" xmlns="http://www.w3.org/2000/svg" p-id="4378" xmlns:xlink="http://www.w3.org/1999/xlink" width="200" height="200"><path d="M238.933333 588.8c2.56 17.493333 5.12 35.157333 7.68 53.333333l24.448-17.706666 21.205334-15.36c-2.048-2.432-43.52-18.176-53.333334-20.266667zM605.866667 588.8l7.68 53.333333 24.149333-17.493333 21.504-15.573333c-2.048-2.432-43.52-18.176-53.333333-20.266667z" fill="#94969B" p-id="4379"></path><path d="M768 85.333333H256a170.666667 170.666667 0 0 0-170.666667 170.666667v512a170.666667 170.666667 0 0 0 170.666667 170.666667h512a170.666667 170.666667 0 0 0 170.666667-170.666667V256a170.666667 170.666667 0 0 0-170.666667-170.666667zM307.114667 562.133333c12.672 5.12 25.002667 10.922667 35.968 19.2 9.130667 6.826667 11.264 15.317333 6.314666 27.776a37.12 37.12 0 0 1-14.08 18.474667c-15.36 12.16-31.189333 22.698667-49.706666 28.885333a240.213333 240.213333 0 0 1-39.850667 9.685334c-12.842667 1.92-25.856 3.072-38.954667 4.266666-4.864 0.426667-9.770667 0.853333-14.634666 1.365334a38.314667 38.314667 0 0 1-7.253334 0.085333 79.701333 79.701333 0 0 0-3.84-0.085333c-1.792 0-2.304-0.896-2.304-2.645334-0.128-5.888-0.554667-11.946667-0.981333-18.090666l-0.426667-6.4a983.04 983.04 0 0 0-3.2-31.488l-2.602666-21.76a11542.016 11542.016 0 0 1-5.632-46.165334 2051.072 2051.072 0 0 1-2.688-21.973333l-1.621334-14.592a969.813333 969.813333 0 0 0-3.669333-30.464l-2.56-18.005333a3233.706667 3233.706667 0 0 0-4.821333-33.365334c-2.645333-20.053333-6.528-40.277333-11.818667-59.989333-0.341333-0.853333 0.512-2.645333 1.066667-3.157333a3152.512 3152.512 0 0 0 53.418666-21.162667c4.48-1.962667 4.906667-2.133333 4.906667 4.608 0 31.146667 0 62.122667 0.554667 93.269333 0.341333 16.213333 0.853333 32.384 2.133333 48.554667 0.853333 12.757333 2.133333 25.6 3.370667 38.570667l1.877333 20.181333c0 0.512 0.170667 0.938667 0.341333 1.322667 0.085333 0.298667 0.213333 0.554667 0.213334 0.810666l5.248-0.298666c4.864-0.298667 9.685333-0.597333 14.506666-0.597334 27.648-0.682667 54.784 2.986667 80.725334 13.226667z m147.029333 29.141334l0.298667 3.456c1.28 11.008 2.56 22.186667 3.328 33.792l0.896 9.6c0 1.749333-0.896 2.133333-2.730667 1.749333-5.12-0.426667-10.069333-0.853333-15.146667-1.194667l-13.653333-1.066666-3.285333-32c-7.381333-72.618667-14.805333-145.664-29.184-218.581334l7.765333-0.853333 8.533333-0.896c6.4-0.298667 12.757333-0.725333 19.114667-1.237333 5.290667-0.341333 7.296 0.853333 7.68 5.802666l2.730667 39.509334a4926.464 4926.464 0 0 1 4.053333 53.546666l0.853333 12.885334c0.512 8.618667 1.066667 17.152 1.92 25.813333 0.64 7.381333 1.365333 14.762667 2.090667 22.058667l1.92 20.096c1.152 9.002667 2.005333 18.432 2.816 27.52z m-55.296-3.029334l1.578667 15.061334c0.896 8.576 1.92 17.28 2.944 26.154666a14918.741333 14918.741333 0 0 1 1.28 11.52c0.256 1.92 0.512 3.882667 0.682666 5.888-9.472 1.194667-18.773333 2.389333-28.544 3.797334-8.448-44.8-16.725333-89.6-24.789333-134.442667 3.669333-0.426667 7.210667-1.024 10.709333-1.578667 3.114667-0.469333 6.144-0.981333 9.173334-1.365333 2.730667-0.426667 5.461333-0.597333 8.192-0.768 2.048-0.128 4.053333-0.213333 6.016-0.426667 2.602667-0.384 4.266667 0.853333 4.565333 3.413334l0.938667 6.528c0.725333 4.821333 1.450667 9.642667 2.005333 14.677333 1.109333 8.789333 1.92 17.706667 2.730667 26.581333l0.853333 8.96 1.706667 16z m101.546667 31.914667l0.597333 26.325333c0 0.853333 0 2.090667 0.341333 4.010667l-9.728 0.085333c-6.4 0.085333-12.672 0.170667-18.773333-0.085333-0.853333 0-2.261333-1.408-2.261333-2.261333l-1.962667-22.869334c-0.64-7.68-1.28-15.317333-2.005333-22.954666l-1.877334-21.248-1.92-21.248a3580.074667 3580.074667 0 0 0-1.706666-19.712c-0.725333-7.936-1.450667-15.957333-2.090667-23.978667 0-0.853333 0-1.749333-0.341333-2.986667 3.413333-0.725333 6.570667-1.237333 10.026666-1.237333 9.045333 0 18.090667 0.170667 27.136 0.554667 2.218667 0 3.413333 1.706667 3.413334 3.84l0.256 4.821333c0.128 2.986667 0.298667 5.973333 0.298666 9.045333l-0.085333 21.461334c-0.085333 14.421333-0.128 28.842667 0.085333 43.136l0.597334 25.301333z m-119.082667-163.370667c0.853333 10.666667 1.706667 21.376 2.688 32.469334-3.242667 0.426667-6.4 0.682667-9.6 0.896l-6.058667 0.512-3.2-29.696-2.474666-23.296c5.077333-0.341333 9.984-0.341333 14.762666-0.341334 1.493333 0 2.261333 1.066667 2.56 3.157334l1.28 16.298666z m130.688-4.693333v49.237333l-11.093333-0.469333a858.453333 858.453333 0 0 1-10.24-0.426667V448h17.024c2.944 0 4.309333 0.896 4.309333 4.138667z m-149.333333 43.306667v3.498666l-12.885334 2.432-5.376-32.426666L341.333333 450.304c2.56-0.256 5.034667-0.682667 7.509334-1.109333 2.56-0.426667 5.034667-0.853333 7.594666-1.152 1.706667-0.256 1.749333 0.853333 1.792 2.005333 0 0.426667 0.042667 0.768 0.128 1.152l0.853334 8.96 0.768 8.32c0.384 4.565333 0.853333 9.002667 1.322666 13.482667 0.512 4.437333 0.981333 8.874667 1.365334 13.44z m117.333333-22.442667v27.136c-5.973333 0.512-11.349333 0.853333-16.725333 1.237333-1.066667-11.349333-2.048-22.784-2.986667-34.56l-1.621333-18.773333h17.749333c2.56 0 3.584 0.554667 3.584 3.2a197.290667 197.290667 0 0 0-0.085333 14.592l0.085333 7.168z m200.533333 89.301333c12.672 5.12 25.002667 10.922667 35.925334 19.2 9.130667 6.826667 11.264 15.317333 6.144 27.648a37.205333 37.205333 0 0 1-14.08 18.474667c-15.36 12.16-31.189333 22.698667-49.706667 28.885333a238.805333 238.805333 0 0 1-39.808 9.685334c-12.842667 1.92-25.856 3.072-38.954667 4.266666-4.864 0.426667-9.770667 0.853333-14.634666 1.365334a38.314667 38.314667 0 0 1-7.253334 0.085333 79.914667 79.914667 0 0 0-3.84-0.085333c-1.749333 0-2.304-0.896-2.304-2.645334a383.701333 383.701333 0 0 0-0.981333-17.962666l-0.426667-6.528c-0.853333-10.538667-1.92-20.906667-3.157333-31.488l-2.688-22.101334-2.602667-21.76c-0.896-7.978667-1.92-15.914667-2.901333-23.808a2034.858667 2034.858667 0 0 1-4.352-36.949333c-1.152-10.154667-2.261333-20.309333-3.669333-30.421333l-2.56-17.706667a3370.24 3370.24 0 0 0-4.864-33.706667 469.333333 469.333333 0 0 0-11.776-60.032c-0.213333-0.853333 0.682667-2.645333 1.194666-2.986666a3115.52 3115.52 0 0 0 52.181334-20.565334c0.426667-0.213333 0.853333-0.426667 1.28-0.554666 4.437333-2.005333 4.906667-2.218667 4.906666 4.565333 0 31.146667 0 62.165333 0.512 93.312 0.341333 16.213333 0.853333 32.426667 2.133334 48.597333 0.896 12.586667 2.133333 25.344 3.328 38.144 0.682667 6.869333 1.322667 13.738667 1.92 20.650667 0 0.512 0.170667 0.938667 0.341333 1.28a2.389333 2.389333 0 0 1 0.213333 0.853333l5.248-0.341333c4.864-0.256 9.685333-0.554667 14.506667-0.554667 27.648-0.725333 54.784 2.986667 80.682667 13.226667z m146.944 29.013334l0.298667 3.456c1.28 11.008 2.56 22.186667 3.328 33.792l0.896 9.6c0 1.749333-0.896 2.133333-2.730667 1.749333-5.12-0.426667-10.069333-0.853333-15.146666-1.194667l-13.653334-1.066666-3.285333-32c-7.381333-72.618667-14.805333-145.664-29.184-218.581334l7.765333-0.853333 8.533334-0.896c6.442667-0.341333 12.672-0.682667 19.114666-1.237333 5.290667-0.341333 7.296 0.853333 7.68 5.802666l2.730667 39.509334c0.64 8.746667 1.28 17.450667 2.005333 26.154666l2.048 27.392 0.853334 12.885334c0.512 8.618667 1.066667 17.152 1.92 25.813333 0.64 7.381333 1.365333 14.762667 2.090666 22.058667l1.92 20.096c1.152 9.002667 2.005333 18.432 2.816 27.52z m-55.296-3.029334l1.578667 15.061334c0.896 8.576 1.92 17.237333 2.901333 26.112l0.853334 7.381333 0.512 4.224 0.64 5.845333c-9.514667 1.194667-19.029333 2.474667-28.544 3.797334-8.448-44.8-16.725333-89.6-24.789334-134.442667 3.669333-0.426667 7.210667-1.024 10.752-1.578667 3.072-0.469333 6.101333-0.981333 9.130667-1.365333 2.730667-0.426667 5.461333-0.597333 8.192-0.768 2.048-0.128 4.053333-0.213333 6.016-0.426667 2.602667-0.384 4.266667 0.853333 4.565333 3.413334l0.938667 6.528c0.725333 4.821333 1.450667 9.642667 2.005333 14.677333 1.066667 8.789333 1.92 17.706667 2.730667 26.581333l0.853333 8.96 1.706667 16z m112.213334 31.914667l0.597333 26.325333c0 0.853333 0 2.090667 0.341333 4.010667l-9.728 0.085333c-6.4 0.085333-12.672 0.170667-18.773333-0.085333-0.853333 0-2.261333-1.408-2.261333-2.261333l-1.962667-22.869334c-0.64-7.68-1.28-15.274667-2.005333-22.954666l-1.877334-21.248a4343.125333 4343.125333 0 0 1-3.626666-40.96c-0.725333-7.936-1.450667-15.957333-2.090667-23.978667 0-0.853333 0-1.749333-0.341333-2.986667 3.413333-0.725333 6.570667-1.237333 10.026666-1.237333 9.045333 0 18.090667 0.170667 27.136 0.554667 2.218667 0 3.413333 1.706667 3.413334 3.84l0.256 4.821333c0.128 2.986667 0.298667 5.973333 0.298666 9.045333l-0.085333 21.461334c-0.085333 14.421333-0.128 28.842667 0.085333 43.136l0.597334 25.301333z m-129.749334-163.413333c0.853333 10.709333 1.706667 21.418667 2.688 32.512-3.242667 0.426667-6.4 0.682667-9.6 0.896l-6.058666 0.512a11284.906667 11284.906667 0 0 1-5.674667-52.992c5.077333-0.341333 9.984-0.341333 14.762667-0.341334 1.493333 0 2.261333 1.066667 2.56 3.157334l1.28 16.298666z m130.688-4.608v49.194666l-11.093333-0.469333a858.453333 858.453333 0 0 1-10.24-0.426667v-0.341333c-5.973333 0.512-11.349333 0.853333-16.725333 1.237333-1.066667-11.349333-2.048-22.784-2.986667-34.56l-1.621333-18.773333h17.749333c2.56 0 3.584 0.554667 3.584 3.2a197.290667 197.290667 0 0 0-0.085333 14.592l0.085333 7.168V448h17.024c2.944 0 4.309333 0.896 4.309333 4.138667z m-149.333333 43.264v3.498666l-12.885333 2.432-5.376-32.426666-3.072-18.602667c2.56-0.256 5.034667-0.682667 7.509333-1.109333 2.56-0.426667 5.034667-0.853333 7.594667-1.152 1.706667-0.256 1.749333 0.853333 1.834666 2.005333a600.661333 600.661333 0 0 0 0.938667 10.069333l0.768 8.362667c0.384 4.565333 0.853333 9.002667 1.322667 13.482667 0.512 4.437333 0.981333 8.874667 1.365333 13.44z" fill="#94969B" p-id="4380"></path></svg>